<svg version="1.1" id="Layer_1" xmlns="http://www.w3.org/2000/svg" xmlns:xlink="http://www.w3.org/1999/xlink" x="0px" y="0px"
	 width="100px" height="100px" viewBox="0 0 200 200" enable-background="new 0 0 200 200" xml:space="preserve">
<g>
	<path fill="none" stroke="#000000" stroke-width="10" stroke-miterlimit="10" d="M58.213,186c-3.3,0-7.348-2.34-8.994-5.2
		L7.42,108.2c-1.646-2.86-1.646-7.54,0-10.4L49.219,25.2c1.646-2.86,5.694-5.2,8.994-5.2h83.574c3.3,0,7.348,2.34,8.994,5.2
		L192.58,97.8c1.646,2.86,1.646,7.54,0,10.4l-41.799,72.6c-1.646,2.86-5.694,5.2-8.994,5.2H58.213z"/>
</g>
<g>
	<path fill-rule="evenodd" clip-rule="evenodd" d="M86.763,30.677c12.626,0.089,25.195,0.119,37.712,1.349
		c4.774,0.469,8.522,2.587,10.927,7.07c2.286,4.261,5.16,8.204,7.537,12.421c1.098,1.946,2.019,1.837,3.634,0.763
		c2.879-1.916,5.878-3.652,8.959-5.545c0.35,1.028-0.247,1.498-0.555,2.005c-5.729,9.451-11.508,18.871-17.188,28.351
		c-0.817,1.363-1.707,1.812-3.258,1.757c-10.895-0.391-21.793-0.693-32.69-1.032c-0.417-0.013-0.833-0.102-1.89-0.237
		c4.003-2.431,7.457-4.543,10.929-6.627c0.891-0.535,1.596-0.929,0.994-2.259c-4.432-9.802-8.979-19.536-15.163-28.399
		C94.039,36.463,90.379,33.659,86.763,30.677z"/>
	<path fill-rule="evenodd" clip-rule="evenodd" d="M96.835,45.573c-0.018-0.378-0.12-0.71-0.489-0.898
		c-0.082-0.918-0.821-1.314-1.438-1.809c-0.293-0.455-0.586-0.911-0.878-1.365c0.1-0.279-0.046-0.422-0.284-0.514
		c-0.229-0.277-0.455-0.553-0.684-0.83c-0.299-0.591-0.706-1.08-1.31-1.382c-0.181-0.432-0.484-0.738-0.925-0.904
		c-0.404-0.643-0.925-1.153-1.646-1.43c-0.343-0.288-0.685-0.575-1.028-0.863c-0.513-0.883-1.484-0.973-2.304-1.325
		c-0.337-0.306-0.673-0.611-1.009-0.916c-0.047-0.431-0.376-0.476-0.707-0.517c-0.367-0.497-0.857-0.784-1.467-0.87
		c-1.48-1.343-3.261-1.01-5.002-0.897c-0.91,0-1.819-0.001-2.729-0.001c-1.062,0-2.122-0.001-3.184-0.001
		c-3.317,0.257-5.6,2.287-7.762,4.526c-1.128,0.797-1.902,1.87-2.436,3.13l0,0c-0.879,1.138-1.672,2.326-2.215,3.666
		c0,0,0,0.001-0.001,0.001c-0.65,0.642-1.075,1.42-1.383,2.271c-0.915,1.111-1.65,2.331-2.22,3.652c0,0,0,0-0.001,0.001
		c-0.606,0.67-1.106,1.405-1.376,2.279c-0.646,0.636-1.111,1.381-1.359,2.257c-0.67,0.636-1.131,1.399-1.391,2.285
		c-0.463,0.344-0.758,0.792-0.838,1.371c-0.77,1.212-1.539,2.423-2.309,3.634c-0.27,0.057-0.381,0.217-0.322,0.491
		c-0.517,0.826-1.023,1.659-1.553,2.476c-0.466,0.719-0.175,1.103,0.538,1.329c0.172,0.099,0.343,0.198,0.515,0.297
		c0.588,0.353,1.175,0.706,1.763,1.058c0.161,0.122,0.322,0.243,0.482,0.364c0.156,0.44,0.536,0.44,0.904,0.464
		c0.653,0.64,1.417,1.096,2.281,1.389c0.454,0.304,0.909,0.607,1.364,0.91c0.336,0.498,0.879,0.623,1.404,0.782
		c0.494,0.51,1.068,0.89,1.764,1.069c0.358,0.451,0.823,0.723,1.387,0.831c0.643,0.65,1.408,1.101,2.271,1.393
		c0.754,0.476,1.508,0.951,2.261,1.427c0.188,0.431,0.61,0.268,0.931,0.364c0.229,0.629,0.752,0.838,1.347,0.948
		c0.62,0.683,1.421,1.085,2.252,1.438c0.323,0.511,0.773,0.813,1.386,0.853c0.458,0.287,0.917,0.573,1.375,0.86
		c1.156,0.76,2.331,1.498,3.465,2.29c0.936,0.651,1.491,0.586,2.105-0.518c1.395-2.501,2.959-4.907,4.455-7.351
		c1.253-0.643,0.859-2.358,2.004-3.07c0.987-0.702,0.822-2.059,1.63-2.863c0.993-0.809,0.925-2.246,1.838-3.103
		c1.111-0.604,1.291-1.812,1.815-2.796c0.605-1.049,1.211-2.098,1.815-3.147c1.114-0.602,1.262-1.833,1.82-2.796
		c1.161-1.328,2.013-2.846,2.742-4.44c0.479-0.362,0.762-0.845,0.889-1.425C95.979,48.324,97.98,47.505,96.835,45.573z M60.4,51.944
		c0.001,0.004,0.002,0.009,0.003,0.013c-0.007,0-0.014,0.003-0.021,0.003C60.389,51.956,60.394,51.95,60.4,51.944z"/>
</g>
<g>
	<path fill-rule="evenodd" clip-rule="evenodd" d="M43.065,151.371c-6.236-10.979-12.494-21.88-17.688-33.334
		c-1.981-4.369-2.021-8.674,0.659-12.998c2.548-4.11,4.525-8.57,6.988-12.738c1.137-1.923,0.582-2.666-1.156-3.527
		c-3.099-1.535-6.102-3.265-9.281-4.986c0.715-0.816,1.421-0.535,2.014-0.522c11.05,0.235,22.098,0.53,33.146,0.71
		c1.589,0.026,2.424,0.572,3.15,1.942c5.109,9.63,10.297,19.22,15.452,28.826c0.196,0.368,0.329,0.772,0.739,1.755
		c-4.105-2.251-7.662-4.186-11.204-6.15c-0.909-0.503-1.601-0.918-2.452,0.269c-6.273,8.739-12.43,17.544-17.014,27.331
		C44.438,142.177,43.841,146.748,43.065,151.371z"/>
	<path fill-rule="evenodd" clip-rule="evenodd" d="M50.929,135.201c-0.318,0.203-0.555,0.458-0.533,0.871
		c-0.754,0.531-0.727,1.369-0.847,2.15c-0.247,0.482-0.496,0.964-0.743,1.443c-0.291,0.053-0.344,0.251-0.303,0.504
		c-0.125,0.335-0.252,0.67-0.377,1.006c-0.362,0.555-0.582,1.151-0.542,1.825c-0.284,0.372-0.397,0.789-0.321,1.253
		c-0.354,0.672-0.535,1.377-0.415,2.141c-0.077,0.44-0.155,0.881-0.233,1.321c-0.508,0.886-0.1,1.772,0.004,2.657
		c-0.096,0.445-0.191,0.889-0.289,1.332c-0.35,0.257-0.224,0.563-0.094,0.871c-0.248,0.567-0.251,1.135-0.021,1.706
		c-0.423,1.953,0.756,3.328,1.724,4.78c0.455,0.789,0.909,1.576,1.363,2.363c0.531,0.92,1.061,1.838,1.591,2.758
		c1.882,2.744,4.78,3.705,7.801,4.459c1.255,0.578,2.569,0.713,3.928,0.545l0,0c1.425,0.191,2.851,0.284,4.282,0.085
		c0,0,0.001-0.001,0.002,0.001c0.881,0.241,1.768,0.22,2.657,0.062c1.42,0.236,2.844,0.263,4.272,0.096c0,0,0,0,0.002,0.001
		c0.884,0.189,1.77,0.255,2.66,0.052c0.875,0.242,1.753,0.272,2.636,0.049c0.886,0.262,1.777,0.28,2.675,0.062
		c0.528,0.229,1.064,0.26,1.605,0.04c1.434,0.062,2.867,0.122,4.301,0.183c0.186,0.205,0.38,0.221,0.588,0.033
		c0.973,0.035,1.947,0.058,2.919,0.107c0.854,0.044,1.043-0.4,0.882-1.131c0-0.197,0-0.396,0-0.594
		c0.012-0.686,0.023-1.37,0.034-2.055c0.025-0.201,0.05-0.4,0.073-0.6c0.304-0.355,0.113-0.686-0.049-1.016
		c0.227-0.886,0.24-1.775,0.062-2.67c0.035-0.545,0.071-1.092,0.106-1.637c0.264-0.54,0.1-1.072-0.025-1.606
		c0.193-0.684,0.236-1.37,0.043-2.062c0.211-0.535,0.215-1.074,0.027-1.616c0.242-0.882,0.249-1.77,0.07-2.664
		c0.033-0.89,0.07-1.781,0.104-2.67c0.28-0.38-0.072-0.663-0.148-0.989c0.431-0.512,0.35-1.07,0.146-1.64
		c0.283-0.879,0.23-1.773,0.12-2.67c0.28-0.535,0.317-1.076,0.046-1.626c0.02-0.54,0.037-1.081,0.057-1.62
		c0.082-1.383,0.132-2.769,0.252-4.146c0.096-1.136-0.238-1.584-1.502-1.564c-2.863,0.043-5.729-0.108-8.594-0.183
		c-1.183-0.764-2.471,0.435-3.66-0.2c-1.102-0.505-2.194,0.317-3.295,0.02c-1.197-0.455-2.407,0.322-3.605-0.04
		c-1.078-0.661-2.215-0.212-3.329-0.175c-1.212,0.001-2.423,0.001-3.634,0.002c-1.078-0.664-2.217-0.177-3.331-0.178
		c-1.729-0.343-3.471-0.32-5.216-0.155c-0.553-0.234-1.113-0.237-1.68-0.057C53.739,134.565,52.03,133.242,50.929,135.201z
		 M74.665,163.567c0.003-0.003,0.006-0.006,0.01-0.009c0.004,0.006,0.01,0.011,0.013,0.017
		C74.681,163.572,74.673,163.57,74.665,163.567z"/>
</g>
<g>
	<path fill-rule="evenodd" clip-rule="evenodd" d="M167.469,129.141c-6.39,10.89-12.702,21.76-20.024,31.985
		c-2.793,3.901-6.501,6.087-11.586,5.929c-4.834-0.152-9.685,0.366-14.525,0.316c-2.234-0.023-2.6,0.829-2.477,2.766
		c0.219,3.451,0.223,6.916,0.322,10.531c-1.064-0.211-1.174-0.963-1.459-1.482c-5.322-9.688-10.59-19.403-15.959-29.062
		c-0.771-1.39-0.717-2.385,0.107-3.7c5.785-9.239,11.496-18.526,17.238-27.795c0.221-0.354,0.504-0.671,1.149-1.517
		c0.104,4.681,0.206,8.729,0.276,12.778c0.019,1.039,0.005,1.845,1.458,1.988c10.705,1.064,21.408,1.993,32.177,1.069
		C158.819,132.549,163.077,130.78,167.469,129.141z"/>
	<path fill-rule="evenodd" clip-rule="evenodd" d="M149.533,130.416c0.335,0.174,0.675,0.252,1.021,0.026
		c0.838,0.387,1.55-0.056,2.286-0.343c0.542-0.026,1.083-0.053,1.622-0.077c0.191,0.226,0.389,0.171,0.588,0.01
		c0.352-0.06,0.705-0.117,1.059-0.177c0.662,0.037,1.289-0.072,1.852-0.443c0.465,0.061,0.883-0.051,1.246-0.348
		c0.759-0.03,1.461-0.226,2.062-0.711c0.42-0.154,0.841-0.306,1.261-0.459c1.021-0.003,1.585-0.8,2.3-1.332
		c0.433-0.14,0.865-0.278,1.298-0.415c0.397,0.175,0.6-0.089,0.801-0.354c0.615-0.068,1.109-0.351,1.488-0.836
		c1.902-0.609,2.504-2.318,3.277-3.882c0.457-0.789,0.911-1.576,1.365-2.362c0.531-0.921,1.062-1.838,1.594-2.757
		c1.436-3.002,0.818-5.992-0.039-8.985c-0.127-1.376-0.668-2.581-1.492-3.674l0,0c-0.547-1.33-1.18-2.611-2.067-3.752
		c0,0-0.001,0,0-0.001c-0.231-0.884-0.694-1.642-1.275-2.333c-0.505-1.348-1.194-2.594-2.054-3.748c0,0,0,0,0-0.001
		c-0.277-0.86-0.664-1.661-1.285-2.329c-0.228-0.879-0.641-1.655-1.275-2.309c-0.217-0.896-0.646-1.679-1.284-2.347
		c-0.065-0.571-0.308-1.052-0.769-1.411c-0.663-1.271-1.328-2.543-1.992-3.815c0.085-0.263,0.002-0.439-0.265-0.525
		c-0.456-0.86-0.924-1.716-1.366-2.582c-0.39-0.761-0.869-0.702-1.421-0.198c-0.171,0.099-0.343,0.197-0.515,0.297
		c-0.6,0.333-1.197,0.666-1.796,0.998c-0.187,0.079-0.372,0.157-0.556,0.236c-0.46-0.085-0.65,0.245-0.855,0.55
		c-0.881,0.247-1.658,0.68-2.343,1.282c-0.489,0.242-0.981,0.484-1.471,0.727c-0.6,0.041-0.979,0.449-1.378,0.824
		c-0.689,0.176-1.305,0.48-1.809,0.994c-0.568,0.086-1.037,0.352-1.413,0.785c-0.885,0.23-1.657,0.669-2.343,1.271
		c-0.787,0.417-1.577,0.83-2.363,1.246c-0.469-0.054-0.538,0.394-0.783,0.622c-0.658-0.117-1.102,0.232-1.492,0.693
		c-0.903,0.194-1.652,0.688-2.373,1.231c-0.604,0.024-1.09,0.263-1.431,0.772c-0.478,0.254-0.955,0.509-1.432,0.762
		c-1.238,0.62-2.464,1.27-3.717,1.854c-1.032,0.485-1.253,0.999-0.604,2.083c1.469,2.458,2.771,5.016,4.139,7.533
		c-0.069,1.406,1.612,1.923,1.657,3.271c0.114,1.206,1.372,1.741,1.665,2.844c0.204,1.265,1.482,1.924,1.768,3.144
		c-0.033,1.264,0.924,2.023,1.514,2.97c0.605,1.05,1.211,2.097,1.818,3.146c-0.037,1.266,0.955,2.008,1.512,2.974
		c0.567,1.669,1.457,3.166,2.473,4.595c0.074,0.596,0.352,1.083,0.791,1.482C147.577,128.299,147.286,130.441,149.533,130.416z
		 M162.231,95.676c-0.004,0-0.008-0.002-0.013-0.003c0.003-0.007,0.005-0.015,0.008-0.021
		C162.228,95.66,162.229,95.668,162.231,95.676z"/>
</g>
</svg>
