<svg version="1.1" id="Layer_1" xmlns="http://www.w3.org/2000/svg" xmlns:xlink="http://www.w3.org/1999/xlink" x="0px" y="0px"
	 width="100px" height="100px" viewBox="0 0 200 200" enable-background="new 0 0 200 200" xml:space="preserve">
<g>
	<path fill="none" stroke="#000000" stroke-width="10" stroke-miterlimit="10" d="M58.213,186c-3.3,0-7.348-2.34-8.994-5.2
		L7.42,108.2c-1.646-2.86-1.646-7.54,0-10.4L49.219,25.2c1.646-2.86,5.694-5.2,8.994-5.2h83.574c3.3,0,7.348,2.34,8.994,5.2
		L192.58,97.8c1.646,2.86,1.646,7.54,0,10.4l-41.799,72.6c-1.646,2.86-5.694,5.2-8.994,5.2H58.213z"/>
</g>
<g>
	<path fill-rule="evenodd" clip-rule="evenodd" d="M31.17,78.629c5.885,1.971,11.715,4.13,17.677,5.836
		c3.351,0.958,6.679,0.096,9.702-1.818c6.15-3.896,12.502-7.418,19.378-9.896c5.902-2.13,11.501-1.598,16.743,1.931
		c0.66,0.445,1.226,1.036,1.954,1.664c-2.964,1.644-5.78,3.146-8.537,4.756c-3.316,1.938-6.635,3.882-9.854,5.972
		c-5.89,3.83-8.173,10.436-5.913,16.714c2.11,5.856,8.478,10.089,14.091,9.178c1.868-0.305,3.724-0.952,5.47-1.711
		c4.485-1.945,8.9-4.044,13.35-6.078c4.304-1.967,7.726-1.333,11.104,2.04c8.648,8.633,17.292,17.27,25.948,25.898
		c2.613,2.607,2.771,6.471,0.328,8.972c-2.481,2.543-6.345,2.41-9.07-0.29c-2.792-2.773-5.579-5.553-8.432-8.267
		c-0.567-0.548-1.181-1.75-2.178-0.838c-0.213,0.198,0.316,1.571,0.818,2.119c2.613,2.88,5.32,5.672,8.015,8.478
		c3.228,3.354,2.555,8.38-1.394,10.28c-2.508,1.214-5.307,0.554-7.493-1.631c-3.434-3.426-6.905-6.82-10.385-10.194
		c-0.449-0.436-1.064-0.714-1.771-1.176c-0.303,1.558,0.555,2.291,1.215,3.011c2.576,2.794,5.204,5.532,7.83,8.273
		c1.183,1.229,1.994,2.594,2.041,4.351c0.066,2.647-1.32,4.885-3.684,5.896c-2.404,1.028-5.037,0.436-6.912-1.5
		c-2.973-3.043-5.969-6.067-8.967-9.091c-0.482-0.482-0.99-0.965-1.564-1.32c-0.317-0.198-0.793-0.133-1.195-0.184
		c0.006,0.415-0.119,0.897,0.046,1.234c0.258,0.521,0.681,0.977,1.089,1.404c2.33,2.45,4.734,4.848,7.019,7.343
		c2.007,2.185,2.12,5.399,0.43,7.705c-2.093,2.852-6.16,3.374-8.848,1.043c-1.202-1.049-2.271-2.257-3.341-3.446
		c-0.217-0.245-0.247-0.746-0.213-1.109c0.646-6.708-2.758-12.332-8.924-14.849c-0.495-0.198-0.997-0.772-1.179-1.287
		c-1.446-4.12-4.109-7.051-8.153-8.756c-0.499-0.21-0.995-0.771-1.193-1.281c-1.48-3.842-4.062-6.548-7.869-8.141
		c-0.505-0.21-1.05-0.745-1.231-1.252c-2.61-7.276-9.927-10.446-17.278-8.696c-5.166,1.228-8.747,4.371-10.791,9.271
		c-0.052,0.124-0.118,0.243-0.191,0.363c-0.049,0.071-0.115,0.137-0.244,0.276c-2.456-0.853-4.951-1.717-7.443-2.588l-13.843-25.317
		L31.17,78.629z"/>
	<path fill-rule="evenodd" clip-rule="evenodd" d="M171.794,125.866c0,0-9.785,1.895-14.709,2.62
		c-3.452,0.515-6.444-0.667-8.966-3.168c-9.455-9.377-18.963-18.705-28.416-28.081c-2.879-2.852-6.26-3.532-9.811-1.884
		c-5.429,2.518-10.696,5.367-16.031,8.086c-1.627,0.827-3.231,1.705-4.865,2.524c-3.962,1.992-8.626,0.501-10.709-3.411
		c-2.034-3.812-0.66-8.543,3.146-10.692c11.144-6.291,22.3-12.567,33.45-18.846c0.039-0.023,0.079-0.043,0.119-0.069
		c4.766-3.114,9.229-2.512,13.462,1.073c4.747,4.024,9.514,8.025,14.247,12.062c2.324,1.983,4.952,2.624,7.909,1.98
		c6.655-1.449,13.304-2.912,19.952-4.358c0.396-0.086,1.222-0.132,1.222-0.132l12.767,20.892L171.794,125.866z"/>
	<path fill-rule="evenodd" clip-rule="evenodd" d="M60.834,135.709c7.269-0.892,10.223,3.842,9.138,9.448
		c2.852-0.237,5.614-0.106,7.651,2.258c2.017,2.351,2.166,5.032,1.262,8.036c0.455-0.053,0.788-0.067,1.111-0.126
		c2.915-0.495,5.483,0.1,7.393,2.497c1.95,2.442,2.131,5.16,0.988,8.006c-1.867,4.661-8.869,7.817-13.451,6.096
		c-3.043-1.15-4.46-3.963-3.476-7.059c0.396-1.261,0.96-2.463,1.518-3.869c-1.349,0.35-2.558,0.713-3.785,0.977
		c-3.731,0.785-6.913-0.971-7.319-4.263c-0.161-1.328,0.409-2.749,0.7-4.12c0.126-0.602,0.386-1.169,0.647-1.93
		c-3.212,0.668-6.279,2.377-9.042-0.529c-2.7-2.845-1.245-5.762-0.04-8.925c-0.925,0.237-1.621,0.37-2.281,0.595
		c-6.193,2.152-9.385-2.957-8.309-7.646c1.032-4.509,4.81-8.451,9.027-9.059c5.225-0.752,9.28,3.381,8.399,8.563
		C60.913,134.963,60.887,135.273,60.834,135.709z"/>
</g>
</svg>
